<!-- <!DOCTYPE svg PUBLIC "-//W3C//DTD SVG 1.1//EN" "http://www.w3.org/Graphics/SVG/1.1/DTD/svg11.dtd"> -->

<!-- Uploaded to: SVG Repo, www.svgrepo.com, Transformed by: SVG Repo Mixer Tools -->
<svg fill="#142033" height="231px" width="231px" version="1.1" id="Layer_1" xmlns="http://www.w3.org/2000/svg" xmlns:xlink="http://www.w3.org/1999/xlink" viewBox="-29.7 -29.7 356.40 356.40" xml:space="preserve">

<g id="SVGRepo_bgCarrier" stroke-width="0"/>

<g id="SVGRepo_tracerCarrier" stroke-linecap="round" stroke-linejoin="round" stroke="#00acf0" stroke-width="6"/>

<g id="SVGRepo_iconCarrier"> <g> <g> <g> <path d="M274.556,9.36L7.53,121.792c-8.754,3.686-10.206,15.481-2.607,21.18l49.523,37.142L278.762,15.616 C281.743,12.635,278.441,7.724,274.556,9.36z"/> <path d="M290.875,25.249l-2.358,1.729L106.87,208.626l93.153,62.101c6.749,4.5,15.929,1.35,18.494-6.346l78.273-234.82 C297.974,26.009,293.894,23.035,290.875,25.249z"/> <polygon points="71.92,287.965 129.44,241.619 98.665,221.103 "/> <path d="M89.868,204.51c0.001-0.001,0.002-0.002,0.003-0.003l102.422-102.422c1.609-1.609-0.557-4.133-2.392-2.788 l-128.04,93.895v79.714l26.357-65.892C88.606,206.045,89.175,205.204,89.868,204.51z"/> </g> </g> </g> </g>

</svg>